<svg xmlns="http://www.w3.org/2000/svg" width="11.611" height="10.917" viewBox="0 0 11.611 10.917">
  <g id="logout" transform="translate(0.05 0.05)">
    <g id="Group_6144" data-name="Group 6144">
      <g id="Group_6143" data-name="Group 6143">
        <path id="Path_1762" data-name="Path 1762" d="M6.986,8.113H6.536a.225.225,0,0,0-.225.225V9.916H.9V.9H6.31V2.479a.225.225,0,0,0,.225.225h.451a.225.225,0,0,0,.225-.225V.9a.9.9,0,0,0-.9-.9H.9A.9.9,0,0,0,0,.9V9.916a.9.9,0,0,0,.9.9H6.31a.9.9,0,0,0,.9-.9V8.338A.225.225,0,0,0,6.986,8.113Z" stroke="#000" stroke-width="0.1"/>
        <path id="Path_1763" data-name="Path 1763" d="M136.04,130.532l-2.7-2.479a.225.225,0,0,0-.378.166v.451a.225.225,0,0,0,.075.167l1.567,1.41h-6.374a.225.225,0,0,0-.225.225v.451a.225.225,0,0,0,.225.225H134.6l-1.567,1.41a.225.225,0,0,0-.075.167v.451a.225.225,0,0,0,.135.206.222.222,0,0,0,.091.019.226.226,0,0,0,.152-.059l2.7-2.479a.226.226,0,0,0,0-.332Z" transform="translate(-124.601 -125.289)" stroke="#000" stroke-width="0.1"/>
      </g>
    </g>
  </g>
</svg>
