<svg version="1.1" xmlns="http://www.w3.org/2000/svg" xmlns:xlink="http://www.w3.org/1999/xlink" x="0px" y="0px" width="24px"
   height="27.615px" viewBox="0 0 24 27.615" style="enable-background:new 0 0 24 27.615;" xml:space="preserve">
<style type="text/css">
  .st0{fill:#00A943;}
  .st1{fill:#FFFFFF;}
  .st2{fill:#FF6800;}
  .st3{fill:#FE000C;}
  .st4{fill:#FC001C;}
</style>
<defs>
</defs>
<g>
  <path class="st0" d="M14.705,24.91L12,27.615L9.295,24.91L12,22.205L14.705,24.91z"/>
  <g>
    <g>
      <g>
        <g>
          <rect class="st0" width="24" height="24.91"/>
          <path class="st1" d="M14.984,22.458v0.934H9.227v-0.935H4.871c-0.426,0-0.772-0.445-0.772-0.993L2.277,3.029
            c0-0.549,0.425-0.993,0.948-0.993h17.602c0.524,0,0.949,0.445,0.949,0.993l-1.802,18.434c0,0.548-0.346,0.993-0.772,0.993
            L14.984,22.458z"/>
          <path class="st2" d="M5.48,4.735h11.786c-1.161,0.435-4.693,2.826-5.576,4.434H5.493L5.48,4.735z"/>
          <path class="st3" d="M14.873,17.441c-0.168,1.606-0.174,3.561-0.174,5.615H9.59c0-2.053,0.084-4.009,0.252-5.615H14.873z"/>
          <polygon class="st0" points="5.104,13.759 6.971,13.759 6.971,14.498 6.154,14.498 6.154,15.12 6.971,15.12 6.971,15.743 
            6.154,15.743 6.154,16.365 6.971,16.365 6.971,17.078 5.104,17.078          "/>
          <polygon class="st0" points="9.448,13.759 11.315,13.759 11.315,14.498 10.498,14.498 10.498,15.12 11.315,15.12 
            11.315,15.743 10.498,15.743 10.498,16.365 11.315,16.365 11.315,17.078 9.448,17.078          "/>
          <polygon class="st0" points="14.232,13.759 16.099,13.759 16.099,14.498 15.282,14.498 15.282,15.12 16.099,15.12 
            16.099,15.743 15.282,15.743 15.282,16.365 16.099,16.365 16.099,17.078 14.232,17.078           "/>
          <polygon class="st0" points="8.372,16.365 9.188,16.365 9.188,17.078 7.321,17.078 7.321,13.759 8.372,13.759          "/>
          <polygon class="st0" points="11.506,13.759 12.026,17.078 13.376,17.078 14.008,13.759 13.227,13.759 12.819,16.002 
            12.422,13.759           "/>
          <rect x="16.54" y="13.759" class="st0" width="1.011" height="3.319"/>
          <path class="st0" d="M17.551,14.744c0.052-0.363,0.571-0.266,0.571-0.059v2.392h1.011v-2.814c0-0.596-0.842-0.836-1.575-0.311"
            />
          <path class="st4" d="M15.347,13.292c0.103-1.271,1.841-3.345,3.527-3.889V4.501c-4.635,2.074-7.651,5.212-8.302,8.778
            L15.347,13.292z"/>
        </g>
      </g>
    </g>
  </g>
</g>
</svg>
