<svg xmlns="http://www.w3.org/2000/svg" xmlns:xlink="http://www.w3.org/1999/xlink" width="112.64" height="112.64" viewBox="0 0 112.64 112.64">
  <defs>
    <filter id="Path_1805" x="0" y="0" width="112.64" height="112.64" filterUnits="userSpaceOnUse">
      <feOffset dy="7" input="SourceAlpha"/>
      <feGaussianBlur stdDeviation="4.5" result="blur"/>
      <feFlood flood-opacity="0.122"/>
      <feComposite operator="in" in2="blur"/>
      <feComposite in="SourceGraphic"/>
    </filter>
    <linearGradient id="linear-gradient" x1="0.79" y1="0.902" x2="0.078" y2="0.17" gradientUnits="objectBoundingBox">
      <stop offset="0" stop-color="#ffa85b"/>
      <stop offset="1" stop-color="#ff7c6d"/>
    </linearGradient>
    <filter id="Ellipse_127" x="62.671" y="58.671" width="45.469" height="45.469" filterUnits="userSpaceOnUse">
      <feOffset dy="3" input="SourceAlpha"/>
      <feGaussianBlur stdDeviation="3" result="blur-2"/>
      <feFlood flood-opacity="0.2"/>
      <feComposite operator="in" in2="blur-2"/>
      <feComposite in="SourceGraphic"/>
    </filter>
  </defs>
  <g id="Group_13026" data-name="Group 13026" transform="translate(13.5 6.5)">
    <g id="Group_12845" data-name="Group 12845">
      <g transform="matrix(1, 0, 0, 1, -13.5, -6.5)" filter="url(#Path_1805)">
        <path id="Path_1805-2" data-name="Path 1805" d="M42.82,0A42.82,42.82,0,1,1,0,42.82,42.82,42.82,0,0,1,42.82,0Z" transform="translate(13.5 6.5)" fill="#fff"/>
      </g>
      <g id="Group_11903" data-name="Group 11903" transform="translate(2.937 2.681)">
        <g id="Group_11900" data-name="Group 11900">
          <circle id="Ellipse_392" data-name="Ellipse 392" cx="39.928" cy="39.928" r="39.928" transform="translate(0)" fill="url(#linear-gradient)"/>
        </g>
        <g id="Group_5796" data-name="Group 5796" transform="translate(15.969 22.564)">
          <g id="Group_5789" data-name="Group 5789" transform="translate(0 0)">
            <circle id="Ellipse_46" data-name="Ellipse 46" cx="1.496" cy="1.496" r="1.496" transform="translate(2.856)" fill="#fff"/>
            <circle id="Ellipse_47" data-name="Ellipse 47" cx="1.496" cy="1.496" r="1.496" transform="translate(3.263 18.629)" fill="#fff"/>
            <circle id="Ellipse_48" data-name="Ellipse 48" cx="1.496" cy="1.496" r="1.496" transform="translate(6.527 24.748)" fill="#fff"/>
            <path id="Path_1563" data-name="Path 1563" d="M7.071,12.6H1.5a1.5,1.5,0,1,0,0,2.992H7.071a1.5,1.5,0,0,0,0-2.992Z" transform="translate(0 -6.345)" fill="#fff"/>
            <path id="Path_1564" data-name="Path 1564" d="M8.415,17.1H5.7a1.5,1.5,0,1,0,0,2.992H8.279a1.509,1.509,0,0,0,1.5-1.5A1.322,1.322,0,0,0,8.415,17.1Z" transform="translate(1.511 -4.726)" fill="#fff"/>
            <path id="Path_1565" data-name="Path 1565" d="M9.907,30.8H4.2a1.5,1.5,0,0,0,0,2.992H9.907a1.5,1.5,0,1,0,0-2.992Z" transform="translate(0.971 0.203)" fill="#fff"/>
            <path id="Path_1566" data-name="Path 1566" d="M48.6,25a22.17,22.17,0,0,0-4.623-8.839,21.825,21.825,0,0,0-8.023-6.119c-2.992-1.36-9.79-1.9-9.79-1.9A28.422,28.422,0,0,0,22.761,8H7.4a1.5,1.5,0,0,0,0,2.992h3.671a1.5,1.5,0,1,1,0,2.992H8.892a1.482,1.482,0,0,0-1.36,1.5,1.509,1.509,0,0,0,1.5,1.5h7.207a1.5,1.5,0,1,1,0,2.992h-4.9a1.73,1.73,0,0,0-1.36,1.5,1.509,1.509,0,0,0,1.5,1.5h1.768a1.5,1.5,0,1,1,0,2.992H12.155a1.5,1.5,0,0,0,0,2.992H21.4a1.5,1.5,0,0,1,0,2.992H10.387a1.5,1.5,0,0,0,0,2.992h7.887a1.5,1.5,0,1,1,0,2.992H14.195a1.5,1.5,0,1,0,0,2.992H32.28a53.733,53.733,0,0,0,6.119-.272,14.8,14.8,0,0,0,3.264-.952,11.137,11.137,0,0,0,4.9-3.671,13.182,13.182,0,0,0,2.448-5.439A14.1,14.1,0,0,0,48.6,25Zm-7.207,1.632L30.1,36.556c-1.224,1.224-2.584.816-2.992-.952L22.761,14.255c-.408-1.768.68-2.176,2.584-.952l15.094,8.7C42.07,23.23,42.614,25.269,41.391,26.629Z" transform="translate(2.123 -8)" fill="#fff"/>
          </g>
        </g>
      </g>
    </g>
    <g id="Group_12846" data-name="Group 12846" transform="translate(58.171 58.171)">
      <g transform="matrix(1, 0, 0, 1, -71.67, -64.67)" filter="url(#Ellipse_127)">
        <circle id="Ellipse_127-2" data-name="Ellipse 127" cx="13.735" cy="13.735" r="13.735" transform="translate(71.67 64.67)" fill="url(#linear-gradient)"/>
      </g>
      <g id="edit" transform="translate(8.536 7.429)">
        <path id="Path_15" data-name="Path 15" d="M10.459,43.534a.282.282,0,0,0-.282.282v4.122a.848.848,0,0,1-.847.847H1.411a.848.848,0,0,1-.847-.847V40.583a.848.848,0,0,1,.847-.847H5.533a.282.282,0,0,0,0-.564H1.411A1.413,1.413,0,0,0,0,40.583v7.355a1.413,1.413,0,0,0,1.411,1.411H9.33a1.413,1.413,0,0,0,1.411-1.411V43.816A.282.282,0,0,0,10.459,43.534Zm0,0" transform="translate(0 -37.755)" fill="#fff" stroke="#fff" stroke-width="0.3"/>
        <path id="Path_16" data-name="Path 16" d="M115.732.631a1.264,1.264,0,0,0-1.788,0l-5.013,5.013a.281.281,0,0,0-.072.124l-.659,2.38a.281.281,0,0,0,.346.346l2.38-.659a.281.281,0,0,0,.124-.072l5.013-5.013a1.266,1.266,0,0,0,0-1.788Zm-6.189,5.2,4.1-4.1,1.323,1.323-4.1,4.1Zm-.264.53,1.057,1.057-1.462.405Zm6.385-4.005-.3.3-1.323-1.323.3-.3a.7.7,0,0,1,.993,0l.33.33A.7.7,0,0,1,115.665,2.352Zm0,0" transform="translate(-104.817 -0.261)" fill="#fff" stroke="#fff" stroke-width="0.3"/>
      </g>
    </g>
  </g>
</svg>
