<svg xmlns="http://www.w3.org/2000/svg" width="10.742" height="12.216" viewBox="0 0 10.742 12.216">
  <g id="Group_12393" data-name="Group 12393" transform="translate(0)">
    <path id="Path_1875" data-name="Path 1875" d="M2.377,101.708A1.515,1.515,0,0,1,1,100.83L.237,99.442c-.007-.007-.007-.021-.014-.028A1.522,1.522,0,0,1,.788,97.49L2.447,96.3,2.5,96.27A.645.645,0,0,1,2.8,96.2a.562.562,0,0,1,.46.237L3.3,96.5a.576.576,0,0,1-.167.753l-1.68,1.2c-.007.007-.021.014-.028.021a.363.363,0,0,0-.153.453l.767,1.388a.153.153,0,0,0,.021.035.368.368,0,0,0,.328.209H8.513a.375.375,0,0,0,.335-.216c.007-.007.007-.021.014-.028L9.65,98.9a.33.33,0,0,0-.146-.411c-.007-.007-.014-.007-.021-.014l-1.7-1.22a.565.565,0,0,1-.126-.816L7.7,96.4a.607.607,0,0,1,.432-.181.58.58,0,0,1,.356.126l1.632,1.171a1.511,1.511,0,0,1,.572,1.9c-.007.007-.007.021-.014.028l-.795,1.415a1.541,1.541,0,0,1-1.374.851Z" transform="translate(-0.082 -89.492)"/>
    <path id="Path_1876" data-name="Path 1876" d="M32.726,7.823a3.038,3.038,0,0,1-2.364-1.3A4.877,4.877,0,0,1,29.4,3.6a3.79,3.79,0,0,1,.934-2.566A3.214,3.214,0,0,1,32.726,0a3.357,3.357,0,0,1,3.326,3.6A4.877,4.877,0,0,1,35.09,6.52,3.049,3.049,0,0,1,32.726,7.823Zm0-6.652A2.225,2.225,0,0,0,30.571,3.6c0,1.569,1.046,3.054,2.155,3.054S34.881,5.167,34.881,3.6A2.225,2.225,0,0,0,32.726,1.171Z" transform="translate(-27.356)"/>
  </g>
</svg>
