<svg xmlns="http://www.w3.org/2000/svg" width="9.615" height="17.783" viewBox="0 0 9.615 17.783">
  <path id="Path_1530" data-name="Path 1530" d="M31.329,0,29.023,0a4.05,4.05,0,0,0-4.265,4.376V6.394H22.44a.363.363,0,0,0-.363.363V9.681a.363.363,0,0,0,.363.363h2.319v7.377a.362.362,0,0,0,.363.363h3.025a.363.363,0,0,0,.363-.363V10.043H31.22a.362.362,0,0,0,.363-.363V6.757a.363.363,0,0,0-.363-.363H28.509V4.684c0-.822.2-1.24,1.267-1.24h1.553a.363.363,0,0,0,.362-.363V.366A.363.363,0,0,0,31.329,0Z" transform="translate(-22.077)" fill="#fff"/>
</svg>
