<svg xmlns="http://www.w3.org/2000/svg" width="15.56" height="11.613" viewBox="0 0 15.56 11.613">
  <g id="Group_13594" data-name="Group 13594" transform="translate(0.05 0.05)">
    <path id="Path_478" data-name="Path 478" d="M3.87,8.808l-.441.049A2.467,2.467,0,0,0,3.7,13.776h7.566a3.454,3.454,0,0,0,.807-6.813l-.237-.057-.1-.223A4.112,4.112,0,0,0,3.868,8.348Q3.868,8.357,3.87,8.808ZM7.98,3.25a5.1,5.1,0,0,1,4.56,2.816,4.441,4.441,0,0,1-1.271,8.7H3.7A3.454,3.454,0,0,1,2.9,7.95,5.1,5.1,0,0,1,7.98,3.25Z" transform="translate(-0.25 -3.25)" fill="#fff" stroke="#fff" stroke-width="0.1"/>
    <g id="Path_479" data-name="Path 479" transform="translate(-2.998 -5.054)" fill="#fff">
      <path d="M 10.72774219512939 14.57689762115479 C 10.42692184448242 14.57689762115479 10.18219184875488 14.33216762542725 10.18219184875488 14.03134822845459 L 10.18219184875488 10.06261730194092 L 9.131312370300293 11.11348819732666 C 9.02827262878418 11.21651744842529 8.89127254486084 11.27326774597168 8.745552062988281 11.27326774597168 C 8.599822044372559 11.27326774597168 8.462821960449219 11.21651744842529 8.359782218933105 11.11348819732666 C 8.147082328796387 10.90077781677246 8.147082328796387 10.55466747283936 8.359782218933105 10.34195804595947 L 10.34198188781738 8.359777450561523 C 10.44502258300781 8.256748199462891 10.58202266693115 8.199997901916504 10.72774219512939 8.199997901916504 C 10.87346172332764 8.199997901916504 11.01046180725098 8.256748199462891 11.11350250244141 8.359777450561523 L 13.09570217132568 10.34195804595947 C 13.3084020614624 10.55466747283936 13.3084020614624 10.90077781677246 13.09570217132568 11.11348819732666 C 12.99266242980957 11.21651744842529 12.85566234588623 11.27326774597168 12.70994186401367 11.27326774597168 C 12.56421184539795 11.27326774597168 12.42721176147461 11.21651744842529 12.3241720199585 11.11348819732666 L 11.27329254150391 10.06261730194092 L 11.27329254150391 14.03134822845459 C 11.27329254150391 14.33216762542725 11.02856254577637 14.57689762115479 10.72774219512939 14.57689762115479 Z" stroke="none"/>
      <path d="M 10.72774219512939 8.249998092651367 C 10.60092258453369 8.249998092651367 10.47410202026367 8.298377990722656 10.37734222412109 8.395137786865234 L 8.395142555236816 10.37731742858887 C 8.201622009277344 10.57083797454834 8.201622009277344 10.88460826873779 8.395142555236816 11.07812786102295 C 8.491902351379395 11.17488765716553 8.618724822998047 11.22326755523682 8.745547294616699 11.22326755523682 C 8.872369766235352 11.22326755523682 8.999192237854004 11.17488765716553 9.095952033996582 11.07812786102295 L 10.23219203948975 9.941897392272949 L 10.23219203948975 14.03134822845459 C 10.23219203948975 14.30503749847412 10.45406246185303 14.52689743041992 10.72774219512939 14.52689743041992 C 11.00142192840576 14.52689743041992 11.22329235076904 14.30503749847412 11.22329235076904 14.03134822845459 L 11.22329235076904 9.941897392272949 L 12.35953235626221 11.07812786102295 C 12.45629215240479 11.17488765716553 12.58311462402344 11.22326755523682 12.70993709564209 11.22326755523682 C 12.83675956726074 11.22326755523682 12.96358203887939 11.17488765716553 13.06034183502197 11.07812786102295 C 13.25386238098145 10.88460826873779 13.25386238098145 10.57083797454834 13.06034183502197 10.37731742858887 L 11.0781421661377 8.395137786865234 C 10.98138236999512 8.298377990722656 10.8545618057251 8.249998092651367 10.72774219512939 8.249998092651367 M 10.72774219512939 8.149997711181641 C 10.88681221008301 8.149997711181641 11.03637218475342 8.211947441101074 11.14885234832764 8.324427604675293 L 13.13105201721191 10.30660820007324 C 13.36325263977051 10.53880786895752 13.36325263977051 10.9166374206543 13.13105201721191 11.14883804321289 C 13.0185718536377 11.26131820678711 12.86901187896729 11.32326793670654 12.70993232727051 11.32326793670654 C 12.55086231231689 11.32326793670654 12.40130233764648 11.26131820678711 12.28882217407227 11.14883804321289 L 11.32329177856445 10.18331623077393 L 11.32329177856445 14.03134822845459 C 11.32329177856445 14.35973739624023 11.05613231658936 14.62689781188965 10.72774219512939 14.62689781188965 C 10.39935207366943 14.62689781188965 10.13219261169434 14.35973739624023 10.13219261169434 14.03134822845459 L 10.13219261169434 10.18331623077393 L 9.166662216186523 11.14883804321289 C 9.054182052612305 11.26131820678711 8.904622077941895 11.32326793670654 8.745542526245117 11.32326793670654 C 8.586472511291504 11.32326793670654 8.436912536621094 11.26131820678711 8.324432373046875 11.14883804321289 C 8.092231750488281 10.9166374206543 8.092231750488281 10.53880786895752 8.324432373046875 10.30660820007324 L 10.30663204193115 8.324427604675293 C 10.41911220550537 8.211947441101074 10.56867218017578 8.149997711181641 10.72774219512939 8.149997711181641 Z" stroke="none" fill="#fff"/>
    </g>
  </g>
</svg>
