<?xml version="1.0" encoding="utf-8"?>
<!-- Generator: Adobe Illustrator 23.0.1, SVG Export Plug-In . SVG Version: 6.00 Build 0)  -->
<svg version="1.1" id="Layer_1" xmlns="http://www.w3.org/2000/svg" xmlns:xlink="http://www.w3.org/1999/xlink" x="0px" y="0px"
	 viewBox="0 0 134.149 26.652" style="enable-background:new 0 0 134.149 26.652;" xml:space="preserve">
<style type="text/css">
	.st0{fill:#FFFFFF;}
	.st1{fill:url(#SVGID_1_);}
	.st2{fill:url(#SVGID_2_);}
	.st3{fill:#F05A22;}
	.st4{fill:url(#SVGID_3_);}
	.st5{fill:url(#SVGID_4_);}
	.st6{fill:url(#SVGID_5_);}
	.st7{fill:url(#SVGID_6_);}
	.st8{fill:url(#SVGID_7_);}
	.st9{fill:none;}
</style>
<g>
	<path class="st0" d="M134.133,9.784c-0.033-1.265-0.232-2.379-0.607-3.406c-0.917-2.509-2.762-4.358-5.338-5.345
		c-2.653-1.017-5.528-0.988-8.306-0.96c0,0-9.898,0.016-9.985,0.019l-0.052,0.001c-0.356,0.012-0.686,0.033-1.006,0.066
		l-0.031,0.003c-0.104,0.011-0.207,0.023-0.306,0.036l-0.029,0.004c-0.104,0.014-0.208,0.029-0.312,0.046l-0.061,0.011
		c-0.091,0.015-0.181,0.031-0.272,0.049l-0.103,0.022c-0.076,0.016-0.152,0.032-0.226,0.05c-0.037,0.009-0.074,0.018-0.11,0.027
		l-0.043,0.011c-0.058,0.015-0.116,0.029-0.173,0.045c-0.06,0.016-0.12,0.035-0.189,0.056l-0.031,0.009
		c-0.035,0.01-0.07,0.021-0.104,0.032c-0.076,0.024-0.151,0.05-0.228,0.077l-0.094,0.033c-0.086,0.032-0.172,0.065-0.276,0.108
		l-0.044,0.018c-0.093,0.039-0.185,0.08-0.287,0.128l-0.033,0.015c-0.095,0.045-0.19,0.093-0.296,0.149l-0.026,0.013
		c-0.092,0.05-0.184,0.102-0.271,0.153l-0.086,0.051c-0.026,0.015-0.052,0.03-0.078,0.046c-0.04,0.025-0.079,0.051-0.119,0.078
		l-0.068,0.045c-0.037,0.024-0.073,0.048-0.111,0.074c-0.062,0.043-0.123,0.087-0.184,0.131c-0.064,0.047-0.129,0.093-0.192,0.142
		c-0.031,0.024-0.061,0.048-0.092,0.073l-0.033,0.026c-0.074,0.059-0.148,0.118-0.22,0.18c-0.028,0.024-0.055,0.048-0.082,0.072
		l-0.044,0.04c-0.064,0.057-0.128,0.113-0.189,0.171c-0.059,0.055-0.116,0.112-0.173,0.169l-0.051,0.051
		c-0.023,0.023-0.046,0.045-0.066,0.066c-0.636,0.655-1.157,1.394-1.546,2.184c-2.995-5.101-9.966-4.941-15.653-4.811
		c-0.864,0.02-1.68,0.039-2.455,0.039c-0.351,0-0.716,0.087-1.058,0.249c-0.331-0.164-0.702-0.249-1.092-0.249H68.026
		c-0.349,0-0.712,0.086-1.052,0.246c-0.33-0.162-0.699-0.246-1.087-0.246H52.213c-1.005,0-2.214,0.758-2.412,1.886L49.652,2.81
		c-0.07-0.086-0.143-0.165-0.22-0.239c-0.115-0.12-0.239-0.228-0.369-0.322c-2.289-1.905-5.347-2.168-8.312-2.168h-5.576
		c-0.43,0-0.88,0.131-1.277,0.364c-0.379-0.244-0.825-0.371-1.315-0.371H9.148c-1.595,0-2.371,1.18-2.418,2.277
		C6.678,3.557,7.489,4.911,9.093,5.049l1.182,0.102C9.711,6.187,9.3,7.358,9.114,8.487c-0.571,3.454,0.644,6.508,3.183,8.079
		l-3.598-0.032c-0.164-0.001-0.328-0.004-0.492-0.007c-1.061-0.019-2.159-0.039-3.244,0.337c-2.628,0.912-4.423,3.318-4.927,6.603
		c-0.13,0.848,0.084,1.671,0.587,2.259c0.447,0.524,1.096,0.814,1.825,0.817l12.261,0.054l3.623,0.023
		c0.523,0.005,1.046,0.009,1.566,0.013l0.246,0.003c0.778,0.009,1.583,0.018,2.377,0.011c0.823-0.008,1.655-0.102,2.467-0.278
		c0.108-0.022,0.215-0.045,0.328-0.072l0.097-0.024c1.336-0.33,2.548-0.886,3.568-1.632c0.091,0.445,0.287,0.86,0.574,1.195
		c0.459,0.536,1.11,0.818,1.837,0.808c2.882-0.059,5.516-1.319,7.227-3.456c1.037-1.296,1.525-2.677,1.815-3.819
		c2.794-0.211,4.97-0.919,6.691-2.192l-0.73,4.152l-3.968,0.341c-1.605,0.138-2.416,1.493-2.364,2.699
		c0.047,1.096,0.824,2.275,2.419,2.275h19.615c0.348,0,0.71-0.085,1.049-0.245c0.329,0.161,0.697,0.245,1.084,0.245h8.454
		c-0.017,0.001-0.033,0.005-0.05,0.006H82.98c-0.002-0.001-0.003-0.002-0.005-0.002c1.392,0.003,2.817,0.004,4.223-0.004
		c3.463-0.021,6.401-0.701,8.733-2.022c2.422-1.373,4.414-3.589,5.643-6.271c1.125,1.133,2.745,1.812,4.453,1.824
		c0.86,0.006,1.72,0.004,2.58,0.002c0.158,0,0.315-0.001,0.473-0.001l-0.594,3.378c-0.106,0.601-0.018,1.214,0.232,1.732h-0.156
		c-0.828,0-1.809,0.505-2.233,1.351l6.047,0.014c-0.001-0.001-0.001-0.003-0.002-0.004c0.301,0.001,0.602,0.001,0.903,0.001
		c0.781,0.002,1.576,0.003,2.374,0.003c0.797,0,1.597-0.002,2.391-0.006c3.463-0.021,6.401-0.701,8.733-2.022
		c2.54-1.439,4.606-3.806,5.817-6.665C133.705,15.327,134.253,12.424,134.133,9.784z"/>
	<g>
		<linearGradient id="SVGID_1_" gradientUnits="userSpaceOnUse" x1="106.5563" y1="17.6516" x2="106.5563" y2="13.924">
			<stop  offset="0" style="stop-color:#005A9E"/>
			<stop  offset="0.1954" style="stop-color:#005397"/>
			<stop  offset="1" style="stop-color:#003B7E"/>
		</linearGradient>
		<path class="st1" d="M110.169,13.924h-7.175h-0.417l0,0c-0.346,1.944,1.149,3.728,3.123,3.728h0.417h3.389h0.417l0.663-3.728
			H110.169z"/>
		<g>
			<linearGradient id="SVGID_2_" gradientUnits="userSpaceOnUse" x1="20.8861" y1="24.1239" x2="20.8861" y2="2.5263">
				<stop  offset="0" style="stop-color:#0073B8"/>
				<stop  offset="0.04" style="stop-color:#016FB4"/>
				<stop  offset="0.464" style="stop-color:#0A468B"/>
				<stop  offset="0.7985" style="stop-color:#0F2C72"/>
				<stop  offset="1" style="stop-color:#112369"/>
			</linearGradient>
			<path class="st2" d="M22.379,2.526h-2.987H9.168l7.046,0.605c0,0-0.001,0-0.001,0l6.593,0.566h-6.822
				c-0.644,0-1.292,0.178-1.79,0.586c-0.003,0.002-0.005,0.004-0.008,0.007c-0.683,0.563-1.261,1.254-1.718,2.053
				c-0.456,0.801-0.766,1.71-0.921,2.704c-0.163,1.019-0.133,1.936,0.088,2.726c0.223,0.795,0.621,1.474,1.183,2.018
				c0.559,0.541,1.284,0.957,2.153,1.235c0.861,0.275,1.863,0.415,2.978,0.415h5.485c0.441,0,0.811,0.047,1.099,0.141
				c0.276,0.09,0.492,0.217,0.641,0.375c0.149,0.158,0.244,0.344,0.289,0.57c0.047,0.236,0.049,0.502,0.005,0.787
				c-0.038,0.22-0.117,0.443-0.235,0.664c-0.116,0.216-0.28,0.411-0.487,0.581c-0.21,0.171-0.478,0.312-0.797,0.418
				c-0.321,0.107-0.708,0.162-1.147,0.162l-8.915-0.084c-0.578,0-1.122,0.111-1.615,0.329c-0.492,0.217-0.939,0.536-1.33,0.947
				c-0.387,0.409-0.717,0.912-0.981,1.497c-0.262,0.582-0.452,1.252-0.565,1.993l-0.034,0.22l13.178,0.084
				c1.147,0,2.193-0.17,3.109-0.505c0.918-0.335,1.724-0.813,2.396-1.419c0.668-0.606,1.221-1.336,1.642-2.17
				c0.419-0.832,0.71-1.757,0.864-2.747c0.17-1.047,0.144-1.991-0.077-2.808c-0.222-0.821-0.616-1.523-1.17-2.085
				c-0.552-0.559-1.264-0.989-2.117-1.278c-0.843-0.286-1.817-0.431-2.892-0.431h-6.15c-0.595,0-1.038-0.139-1.314-0.412
				c-0.271-0.268-0.363-0.648-0.283-1.161c0.044-0.272,0.131-0.511,0.259-0.713c0.128-0.203,0.288-0.376,0.475-0.513
				c0.189-0.139,0.403-0.242,0.634-0.308c0.239-0.068,0.487-0.102,0.738-0.102h9.38c0.544,0,1.07-0.108,1.567-0.322
				c0.496-0.214,0.95-0.526,1.349-0.929c0.398-0.402,0.741-0.9,1.019-1.481c0.276-0.577,0.477-1.246,0.598-1.99l0.036-0.223H22.379z
				"/>
			<path class="st3" d="M30.472,14.463c0.221,0.817,0.247,1.761,0.077,2.808c-0.155,0.99-0.446,1.915-0.864,2.747
				c-0.421,0.834-0.974,1.564-1.642,2.17c-0.672,0.607-1.478,1.085-2.396,1.419c-0.916,0.335-1.963,0.505-3.109,0.505l-4.236-0.027
				l-2.834-0.012l-0.001,0.005L2.472,24.02l0.034-0.221c0.113-0.745,0.303-1.419,0.565-2.004c0.264-0.588,0.594-1.095,0.982-1.506
				c0.39-0.413,0.837-0.734,1.33-0.952c0.493-0.219,1.045-0.366,1.623-0.366l8.911,0.078l-0.001,0.01l2.835,0.025l0,0.003
				l4.049,0.038C22.799,19.125,29.453,19.272,30.472,14.463z"/>
		</g>
		<linearGradient id="SVGID_3_" gradientUnits="userSpaceOnUse" x1="117.6912" y1="24.1211" x2="117.6912" y2="2.5329">
			<stop  offset="0" style="stop-color:#0073B8"/>
			<stop  offset="0.04" style="stop-color:#016FB4"/>
			<stop  offset="0.464" style="stop-color:#0A468B"/>
			<stop  offset="0.7985" style="stop-color:#0F2C72"/>
			<stop  offset="1" style="stop-color:#112369"/>
		</linearGradient>
		<path class="st4" d="M131.454,8.033c-0.32-1.38-0.911-2.478-1.773-3.293c-0.861-0.815-1.963-1.387-3.304-1.715
			c-1.342-0.328-2.844-0.492-4.505-0.492h-3.296l0,0h-7.986v0h-0.974c-2.914,0-5.407,2.093-5.911,4.963h6.304v0h3.834v0h6.304v0
			h0.835c1.753,0,3.007,0.496,3.762,1.487c0.755,0.991,0.956,2.447,0.606,4.368c-0.336,1.906-1.033,3.35-2.092,4.333
			c-1.06,0.983-2.504,1.475-4.333,1.475h-1.304l0-0.001h-4.658l4.757-0.559l0.81-4.587l0,0l1.001-5.67h-2.906
			c-1.692,0-3.14,1.215-3.433,2.882v0h-0.003l-2.268,12.898h7.157c1.647,0,3.198-0.186,4.654-0.56
			c1.456-0.373,2.767-0.991,3.934-1.852c1.166-0.861,2.157-1.981,2.973-3.362c0.815-1.379,1.399-3.076,1.749-5.088
			C131.751,11.154,131.774,9.413,131.454,8.033z"/>
		<path class="st3" d="M120.98,7.496h-0.835l0,0h-6.304v0h-3.834l0,0h-6.304v0c0.505-2.87,2.998-4.963,5.911-4.963h0.974l0,0h7.986
			l0,0h3.296c1.661,0,3.163,0.164,4.505,0.492c1.341,0.328,2.443,0.9,3.304,1.715c0.861,0.816,1.452,1.914,1.773,3.293
			s0.297,3.121-0.069,5.225C131.385,13.259,130.95,7.703,120.98,7.496z"/>
		<linearGradient id="SVGID_4_" gradientUnits="userSpaceOnUse" x1="40.1975" y1="24.121" x2="40.1975" y2="2.533">
			<stop  offset="0" style="stop-color:#0073B8"/>
			<stop  offset="0.04" style="stop-color:#016FB4"/>
			<stop  offset="0.464" style="stop-color:#0A468B"/>
			<stop  offset="0.7985" style="stop-color:#0F2C72"/>
			<stop  offset="1" style="stop-color:#112369"/>
		</linearGradient>
		<path class="st5" d="M47.694,4.294c-1.182-1.174-3.244-1.761-6.186-1.761h-6.311L31.4,24.121c3.332,0,6.181-2.395,6.754-5.677
			l0.267-1.526h1.464c1.204,0,2.313-0.164,3.327-0.492c1.014-0.327,1.902-0.8,2.665-1.418c0.762-0.618,1.395-1.369,1.898-2.253
			c0.503-0.884,0.854-1.89,1.052-3.019C49.252,7.282,48.874,5.468,47.694,4.294z M43.108,9.645c-0.076,0.488-0.21,0.888-0.4,1.2
			c-0.191,0.313-0.42,0.56-0.686,0.743c-0.267,0.183-0.564,0.313-0.892,0.389c-0.328,0.077-0.667,0.114-1.018,0.114h-0.847
			l0.001-0.003h-3.253l3.31-0.322l0.788-4.409h0.846c0.35,0,0.675,0.038,0.972,0.114c0.297,0.077,0.545,0.202,0.743,0.378
			c0.198,0.175,0.339,0.411,0.423,0.709C43.18,8.856,43.184,9.219,43.108,9.645z"/>
		<linearGradient id="SVGID_5_" gradientUnits="userSpaceOnUse" x1="90.4555" y1="24.121" x2="90.4555" y2="2.533">
			<stop  offset="0" style="stop-color:#0073B8"/>
			<stop  offset="0.04" style="stop-color:#016FB4"/>
			<stop  offset="0.464" style="stop-color:#0A468B"/>
			<stop  offset="0.7985" style="stop-color:#0F2C72"/>
			<stop  offset="1" style="stop-color:#112369"/>
		</linearGradient>
		<path class="st6" d="M100.611,8.033c-0.32-1.38-0.911-2.478-1.773-3.293c-0.861-0.815-1.963-1.387-3.304-1.715
			c-1.342-0.327-2.844-0.492-4.505-0.492h-7.158l-3.796,21.588h7.157c1.647,0,3.198-0.186,4.654-0.56
			c1.456-0.373,2.767-0.991,3.934-1.852c1.166-0.861,2.157-1.982,2.973-3.362c0.815-1.379,1.399-3.076,1.749-5.088
			C100.909,11.154,100.932,9.413,100.611,8.033z M88.834,7.496h1.304c1.753,0,3.007,0.496,3.762,1.487
			c0.755,0.991,0.956,2.447,0.606,4.368c-0.336,1.906-1.033,3.35-2.092,4.333c-1.06,0.983-2.504,1.475-4.333,1.475h-1.304l0,0
			h-4.662l4.759-0.56L88.834,7.496z"/>
		<linearGradient id="SVGID_6_" gradientUnits="userSpaceOnUse" x1="54.2049" y1="24.121" x2="54.2049" y2="2.533">
			<stop  offset="0" style="stop-color:#0073B8"/>
			<stop  offset="0.04" style="stop-color:#016FB4"/>
			<stop  offset="0.464" style="stop-color:#0A468B"/>
			<stop  offset="0.7985" style="stop-color:#0F2C72"/>
			<stop  offset="1" style="stop-color:#112369"/>
		</linearGradient>
		<path class="st7" d="M62.965,19.296h-7.966l0.572-3.348l-4.688-0.402h7.221c2.865-0.004,5.32-2.052,5.837-4.871v0h-7.409
			l0.572-3.316h7.958l0.846-4.825H52.233l-3.705,21.071l-6.026,0.517h5.935h7.277h6.403L62.965,19.296z"/>
		<linearGradient id="SVGID_7_" gradientUnits="userSpaceOnUse" x1="72.9861" y1="24.121" x2="72.9861" y2="2.533">
			<stop  offset="0" style="stop-color:#0073B8"/>
			<stop  offset="0.04" style="stop-color:#016FB4"/>
			<stop  offset="0.464" style="stop-color:#0A468B"/>
			<stop  offset="0.7985" style="stop-color:#0F2C72"/>
			<stop  offset="1" style="stop-color:#112369"/>
		</linearGradient>
		<path class="st8" d="M78.776,19.296h-7.963l0.572-3.346l-4.692-0.403h4.761l0-0.001h2.457c2.869,0,5.328-2.05,5.844-4.871v0
			h-7.409l0.572-3.316h7.958l0.147-0.838l0.699-3.987H68.046L64.25,24.121h13.677L78.776,19.296z"/>
	</g>
	<path class="st9" d="M112.374,26.648c0.001,0.001,0.001,0.003,0.002,0.004h3.275c-0.798,0-1.592-0.002-2.374-0.003
		C112.975,26.648,112.675,26.648,112.374,26.648z"/>
</g>
</svg>
