<svg xmlns="http://www.w3.org/2000/svg" width="8.468" height="11.212" viewBox="0 0 8.468 11.212">
  <g id="Group_13595" data-name="Group 13595" transform="translate(160.546 0.1)">
    <g id="Group_11571" data-name="Group 11571" transform="translate(-160.44 0)">
      <g id="Group_11570" data-name="Group 11570" transform="translate(0 0)">
        <path id="Path_4457" data-name="Path 4457" d="M-152.21,10.618l-1.451-3.069a.272.272,0,0,0-.139-.134l-.722-.321,1.251-2.1.008-.015a3.386,3.386,0,0,0,.375-1.559,3.4,3.4,0,0,0-1.02-2.438A3.4,3.4,0,0,0-156.361,0a3.4,3.4,0,0,0-2.379,1.015,3.4,3.4,0,0,0-1,2.387,3.433,3.433,0,0,0,.375,1.579l.008.015,1.251,2.1-.726.323a.271.271,0,0,0-.135.132l-1.451,3.069a.271.271,0,0,0,.051.306.272.272,0,0,0,.3.058l1.818-.809,1.818.809a.272.272,0,0,0,.221,0l1.818-.809,1.818.809a.271.271,0,0,0,.11.023.271.271,0,0,0,.194-.082A.272.272,0,0,0-152.21,10.618Zm-6.671-5.891a2.848,2.848,0,0,1-.311-1.321A2.9,2.9,0,0,1-156.353.543a2.862,2.862,0,0,1,2.063.829,2.86,2.86,0,0,1,.858,2.051,2.848,2.848,0,0,1-.311,1.3l-2.336,3.915a.267.267,0,0,1-.233.132.267.267,0,0,1-.233-.132Zm4.608,4.9a.272.272,0,0,0-.221,0l-1.818.809-1.818-.809a.272.272,0,0,0-.221,0l-1.259.561,1.095-2.316.693-.309.81,1.357a.808.808,0,0,0,.7.4.808.808,0,0,0,.7-.4l.81-1.357.693.309,1.095,2.316Z" transform="translate(160.44 0)" stroke="#000" stroke-width="0.2"/>
      </g>
    </g>
    <g id="Group_11573" data-name="Group 11573" transform="translate(-157.551 2.184)">
      <g id="Group_11572" data-name="Group 11572" transform="translate(0)">
        <path id="Path_4458" data-name="Path 4458" d="M-24.83,101.607a1.241,1.241,0,0,0-1.239,1.239,1.241,1.241,0,0,0,1.239,1.239,1.241,1.241,0,0,0,1.239-1.239A1.241,1.241,0,0,0-24.83,101.607Zm0,1.936a.7.7,0,0,1-.7-.7.7.7,0,0,1,.7-.7.7.7,0,0,1,.7.7A.7.7,0,0,1-24.83,103.543Z" transform="translate(26.069 -101.607)" stroke="#000" stroke-width="0.2"/>
      </g>
    </g>
  </g>
</svg>
