<svg xmlns="http://www.w3.org/2000/svg" width="10.407" height="11.851" viewBox="0 0 10.407 11.851">
  <g id="password" transform="translate(0.15 0.15)">
    <g id="Group_11004" data-name="Group 11004">
      <g id="Group_11003" data-name="Group 11003">
        <circle id="Ellipse_299" data-name="Ellipse 299" cx="0.451" cy="0.451" r="0.451" transform="translate(7.174 7.355)" stroke="#000" stroke-width="0.3"/>
        <path id="Path_2547" data-name="Path 2547" d="M41.656,8.167a.451.451,0,0,0,.451-.451V6.046a1.807,1.807,0,0,0-1.8-1.8H39.76V2.65a2.708,2.708,0,0,0-5.414,0V4.241H33.8a1.807,1.807,0,0,0-1.8,1.8v3.7a1.807,1.807,0,0,0,1.8,1.8h6.5a1.807,1.807,0,0,0,1.8-1.8.451.451,0,0,0-.9,0,.9.9,0,0,1-.9.9H33.8a.9.9,0,0,1-.9-.9v-3.7a.9.9,0,0,1,.9-.9h6.5a.9.9,0,0,1,.9.9V7.716A.451.451,0,0,0,41.656,8.167Zm-2.8-3.925h-3.61V2.65a1.806,1.806,0,0,1,3.61,0Z" transform="translate(-32 0)" stroke="#000" stroke-width="0.3"/>
        <circle id="Ellipse_300" data-name="Ellipse 300" cx="0.451" cy="0.451" r="0.451" transform="translate(3.768 7.355)" stroke="#000" stroke-width="0.3"/>
        <circle id="Ellipse_301" data-name="Ellipse 301" cx="0.451" cy="0.451" r="0.451" transform="translate(2.076 7.355)" stroke="#000" stroke-width="0.3"/>
        <circle id="Ellipse_302" data-name="Ellipse 302" cx="0.451" cy="0.451" r="0.451" transform="translate(5.46 7.355)" stroke="#000" stroke-width="0.3"/>
      </g>
    </g>
  </g>
</svg>
